# Blender v2.79 (sub 0) OBJ File: ''
# www.blender.org
mtllib hextiles.mtl
o Plane
v 0.277833 -0.516085 -0.154378
v 0.000000 -0.516085 0.312563
v -0.277833 -0.516085 -0.154378
v -0.277833 -0.516085 0.152826
v -0.000000 -0.516085 -0.321833
v 0.277833 -0.516085 0.152826
v -0.518697 -0.516085 0.152826
v 0.277833 -0.462854 0.152826
v 0.277833 -0.462854 -0.154378
v -0.277833 -0.462854 -0.154378
v -0.277833 -0.462854 0.152826
v -0.000000 -0.462854 -0.321833
v 0.000000 -0.462854 0.312563
vn 0.0000 -1.0000 0.0000
vn 0.0000 1.0000 -0.0000
vn 1.0000 0.0000 0.0000
vn 0.4984 0.0000 0.8669
vn -0.4984 0.0000 0.8669
vn 0.5162 0.0000 -0.8565
vn -1.0000 0.0000 0.0000
vn -0.5162 0.0000 -0.8565
usemtl None
s off
f 4//1 6//1 2//1
f 5//1 1//1 3//1
f 6//1 4//1 3//1 1//1
f 11//2 13//2 8//2
f 12//2 10//2 9//2
f 8//2 9//2 10//2 11//2
f 6//3 1//3 9//3 8//3
f 2//4 6//4 8//4 13//4
f 4//5 2//5 13//5 11//5
f 1//6 5//6 12//6 9//6
f 3//7 4//7 11//7 10//7
f 5//8 3//8 10//8 12//8
