# Blender v2.79 (sub 0) OBJ File: ''
# www.blender.org
mtllib st_pillar_mid_corr.mtl
o ringthinh
v 0.190481 -0.505023 -0.063494
v 0.126987 -0.505023 -0.063494
v 0.126987 0.502195 -0.063494
v 0.190481 0.502195 -0.063494
v 0.126987 -0.505023 -0.000000
v 0.190481 -0.505023 -0.000000
v 0.190481 0.502195 0.000000
v 0.126987 0.502195 0.000000
v 0.063494 -0.505023 -0.063494
v 0.063494 0.502195 -0.063494
v 0.126987 -0.505023 -0.126987
v 0.063494 -0.505023 -0.126987
v 0.063494 0.502195 -0.126987
v 0.126987 0.502195 -0.126987
v -0.000000 -0.505023 -0.126987
v -0.000000 0.502195 -0.126987
v 0.063494 -0.505023 -0.190481
v -0.000000 -0.505023 -0.190481
v -0.000000 0.502195 -0.190481
v 0.063494 0.502195 -0.190481
v 0.000000 -0.505023 0.190481
v 0.063494 -0.505023 0.190481
v 0.063494 0.502195 0.190481
v 0.000000 0.502195 0.190481
v 0.063494 -0.505023 0.126987
v 0.000000 -0.505023 0.126987
v 0.000000 0.502195 0.126987
v 0.063494 0.502195 0.126987
v 0.126987 -0.505023 0.126987
v 0.126987 0.502195 0.126987
v 0.126987 -0.505023 0.063494
v 0.063494 -0.505023 0.063494
v 0.063494 0.502195 0.063494
v 0.126987 0.502195 0.063494
v 0.190481 -0.505023 0.063494
v 0.190481 0.502195 0.063494
v -0.126987 -0.505023 -0.063494
v -0.190481 -0.505023 -0.063494
v -0.190481 0.502195 -0.063494
v -0.126987 0.502195 -0.063494
v -0.190481 -0.505023 0.000000
v -0.126987 -0.505023 0.000000
v -0.126987 0.502195 0.000000
v -0.190481 0.502195 0.000000
v -0.063494 -0.505023 -0.063494
v -0.063494 0.502195 -0.063494
v -0.063494 -0.505023 -0.126987
v -0.126987 -0.505023 -0.126987
v -0.126987 0.502195 -0.126987
v -0.063494 0.502195 -0.126987
v -0.063494 -0.505023 -0.190481
v -0.063494 0.502195 -0.190481
v -0.063494 -0.505023 0.190481
v -0.063494 0.502195 0.190481
v -0.063494 -0.505023 0.126987
v -0.063494 0.502195 0.126987
v -0.126987 -0.505023 0.126987
v -0.126987 0.502195 0.126987
v -0.063494 -0.505023 0.063494
v -0.126987 -0.505023 0.063494
v -0.126987 0.502195 0.063494
v -0.063494 0.502195 0.063494
v -0.190481 -0.505023 0.063494
v -0.190481 0.502195 0.063494
vt 0.425000 0.912664
vt 0.400000 0.912664
vt 0.400000 0.000000
vt 0.425000 0.000000
vt 0.200000 0.956332
vt 0.200000 1.000000
vt 0.175000 1.000000
vt 0.175000 0.956332
vt 0.175000 0.956332
vt 0.175000 1.000000
vt 0.150000 1.000000
vt 0.150000 0.956332
vt 0.075000 0.000000
vt 0.100000 0.000000
vt 0.100000 0.912664
vt 0.075000 0.912664
vt 0.325000 0.000000
vt 0.325000 0.912664
vt 0.300000 0.912664
vt 0.300000 0.000000
vt 0.675000 0.912664
vt 0.650000 0.912664
vt 0.650000 0.000000
vt 0.675000 0.000000
vt 0.850000 0.912664
vt 0.825000 0.912664
vt 0.825000 0.000000
vt 0.850000 0.000000
vt 0.300000 0.956332
vt 0.275000 0.956332
vt 0.275000 0.912664
vt 0.300000 0.912664
vt 0.275000 0.912664
vt 0.275000 0.956332
vt 0.250000 0.956332
vt 0.250000 0.912664
vt 0.475000 0.000000
vt 0.500000 0.000000
vt 0.500000 0.912664
vt 0.475000 0.912664
vt 1.000000 0.000000
vt 1.000000 0.912664
vt 0.975000 0.912664
vt 0.975000 0.000000
vt 0.175000 0.912664
vt 0.150000 0.912664
vt 0.150000 0.000000
vt 0.175000 0.000000
vt 0.250000 0.912664
vt 0.225000 0.912664
vt 0.225000 0.000000
vt 0.250000 0.000000
vt 0.075000 0.956332
vt 0.050000 0.956332
vt 0.050000 0.912664
vt 0.075000 0.912664
vt 0.150000 1.000000
vt 0.125000 1.000000
vt 0.125000 0.956332
vt 0.150000 0.956332
vt 0.550000 0.000000
vt 0.575000 0.000000
vt 0.575000 0.912664
vt 0.550000 0.912664
vt 0.125000 0.912664
vt 0.100000 0.912664
vt 0.100000 0.000000
vt 0.125000 0.000000
vt 0.300000 0.912664
vt 0.275000 0.912664
vt 0.275000 0.000000
vt 0.300000 0.000000
vt 0.000000 0.956332
vt 0.025000 0.956332
vt 0.025000 1.000000
vt 0.000000 1.000000
vt 0.100000 0.912664
vt 0.125000 0.912664
vt 0.125000 0.956332
vt 0.100000 0.956332
vt 0.450000 0.000000
vt 0.475000 0.000000
vt 0.475000 0.912664
vt 0.450000 0.912664
vt 0.750000 0.912664
vt 0.725000 0.912664
vt 0.725000 0.000000
vt 0.750000 0.000000
vt 0.825000 0.912664
vt 0.800000 0.912664
vt 0.800000 0.000000
vt 0.825000 0.000000
vt 0.225000 0.956332
vt 0.200000 0.956332
vt 0.200000 0.912664
vt 0.225000 0.912664
vt 0.375000 0.912664
vt 0.375000 0.956332
vt 0.350000 0.956332
vt 0.350000 0.912664
vt 0.525000 0.000000
vt 0.550000 0.000000
vt 0.550000 0.912664
vt 0.525000 0.912664
vt 0.950000 0.000000
vt 0.950000 0.912664
vt 0.925000 0.912664
vt 0.925000 0.000000
vt 0.775000 0.912664
vt 0.750000 0.912664
vt 0.750000 0.000000
vt 0.775000 0.000000
vt 0.175000 0.912664
vt 0.175000 0.912664
vt 0.150000 0.912664
vt 0.050000 0.000000
vt 0.050000 0.912664
vt 0.350000 0.000000
vt 0.350000 0.912664
vt 0.575000 0.000000
vt 0.600000 0.000000
vt 0.600000 0.912664
vt 0.575000 0.912664
vt 0.025000 0.956332
vt 0.025000 0.912664
vt 0.050000 0.912664
vt 0.050000 0.956332
vt 0.100000 0.956332
vt 0.100000 1.000000
vt 0.075000 1.000000
vt 0.075000 0.956332
vt 0.025000 0.000000
vt 0.050000 0.000000
vt 0.050000 0.912664
vt 0.025000 0.912664
vt 0.375000 0.000000
vt 0.375000 0.912664
vt 0.350000 0.912664
vt 0.350000 0.000000
vt 0.650000 0.912664
vt 0.625000 0.912664
vt 0.625000 0.000000
vt 0.650000 0.000000
vt 0.675000 0.000000
vt 0.700000 0.000000
vt 0.700000 0.912664
vt 0.675000 0.912664
vt 0.325000 0.956332
vt 0.325000 0.912664
vt 0.350000 0.912664
vt 0.350000 0.956332
vt 0.325000 0.912664
vt 0.325000 0.956332
vt 0.300000 0.956332
vt 0.300000 0.912664
vt 0.425000 0.000000
vt 0.450000 0.000000
vt 0.450000 0.912664
vt 0.425000 0.912664
vt 0.975000 0.000000
vt 0.975000 0.912664
vt 0.950000 0.912664
vt 0.950000 0.000000
vt 0.200000 0.912664
vt 0.200000 0.000000
vt 0.200000 0.912664
vt 0.200000 0.000000
vt 0.075000 1.000000
vt 0.050000 1.000000
vt 0.125000 0.912664
vt 0.150000 0.912664
vt 0.925000 0.000000
vt 0.925000 0.912664
vt 0.900000 0.912664
vt 0.900000 0.000000
vt 0.150000 0.912664
vt 0.150000 0.000000
vt 0.250000 0.912664
vt 0.250000 0.000000
vt 0.000000 0.912664
vt 0.025000 0.912664
vt 0.125000 1.000000
vt 0.100000 1.000000
vt 0.875000 0.000000
vt 0.875000 0.912664
vt 0.850000 0.912664
vt 0.850000 0.000000
vt 0.725000 0.912664
vt 0.700000 0.912664
vt 0.700000 0.000000
vt 0.725000 0.000000
vt 0.600000 0.000000
vt 0.625000 0.000000
vt 0.625000 0.912664
vt 0.600000 0.912664
vt 0.225000 0.956332
vt 0.225000 0.912664
vt 0.250000 0.912664
vt 0.250000 0.956332
vt 0.400000 0.912664
vt 0.400000 0.956332
vt 0.375000 0.956332
vt 0.375000 0.912664
vt 0.500000 0.000000
vt 0.525000 0.000000
vt 0.525000 0.912664
vt 0.500000 0.912664
vt 0.900000 0.000000
vt 0.900000 0.912664
vt 0.875000 0.912664
vt 0.875000 0.000000
vt 0.800000 0.912664
vt 0.775000 0.912664
vt 0.775000 0.000000
vt 0.800000 0.000000
vt 0.025000 1.000000
vt 0.050000 1.000000
vt 0.100000 0.912664
vt 0.075000 0.912664
vt 0.000000 0.000000
vt 0.000000 0.912664
vt 0.400000 0.000000
vt 0.400000 0.912664
vn 0.0000 0.0000 -1.0000
vn 0.0000 -1.0000 0.0000
vn 0.0000 1.0000 0.0000
vn 1.0000 0.0000 0.0000
vn -1.0000 0.0000 0.0000
vn 0.0000 -0.0000 1.0000
usemtl Material.001
s 1
f 1/1/1 2/2/1 3/3/1 4/4/1
f 5/5/2 2/6/2 1/7/2 6/8/2
f 7/9/3 4/10/3 3/11/3 8/12/3
f 6/13/4 1/14/4 4/15/4 7/16/4
f 5/17/5 8/18/5 3/19/5 2/20/5
f 9/21/6 2/22/6 3/23/6 10/24/6
f 11/25/1 12/26/1 13/27/1 14/28/1
f 9/29/2 12/30/2 11/31/2 2/32/2
f 3/33/3 14/34/3 13/35/3 10/36/3
f 2/37/4 11/38/4 14/39/4 3/40/4
f 9/41/5 10/42/5 13/43/5 12/44/5
f 15/45/6 12/46/6 13/47/6 16/48/6
f 17/49/1 18/50/1 19/51/1 20/52/1
f 15/53/2 18/54/2 17/55/2 12/56/2
f 13/57/3 20/58/3 19/59/3 16/60/3
f 12/61/4 17/62/4 20/63/4 13/64/4
f 21/65/6 22/66/6 23/67/6 24/68/6
f 25/69/1 26/70/1 27/71/1 28/72/1
f 21/73/2 26/74/2 25/75/2 22/76/2
f 23/77/3 28/78/3 27/79/3 24/80/3
f 22/81/4 25/82/4 28/83/4 23/84/4
f 25/85/6 29/86/6 30/87/6 28/88/6
f 31/89/1 32/90/1 33/91/1 34/92/1
f 25/93/2 32/94/2 31/95/2 29/96/2
f 30/97/3 34/98/3 33/99/3 28/100/3
f 29/101/4 31/102/4 34/103/4 30/104/4
f 25/105/5 28/106/5 33/107/5 32/108/5
f 31/109/6 35/110/6 36/111/6 34/112/6
f 31/95/2 5/5/2 6/8/2 35/113/2
f 36/114/3 7/9/3 8/12/3 34/115/3
f 35/116/4 6/13/4 7/16/4 36/117/4
f 31/118/5 34/119/5 8/18/5 5/17/5
f 37/120/1 38/121/1 39/122/1 40/123/1
f 41/124/2 38/125/2 37/126/2 42/127/2
f 43/128/3 40/129/3 39/130/3 44/131/3
f 42/132/4 37/133/4 40/134/4 43/135/4
f 41/136/5 44/137/5 39/138/5 38/139/5
f 37/140/6 45/141/6 46/142/6 40/143/6
f 47/144/1 48/145/1 49/146/1 50/147/1
f 37/148/2 48/149/2 47/150/2 45/151/2
f 46/152/3 50/153/3 49/154/3 40/155/3
f 45/156/4 47/157/4 50/158/4 46/159/4
f 37/160/5 40/161/5 49/162/5 48/163/5
f 47/164/6 15/45/6 16/48/6 50/165/6
f 18/50/1 51/166/1 52/167/1 19/51/1
f 47/168/2 51/169/2 18/54/2 15/53/2
f 16/60/3 19/59/3 52/170/3 50/171/3
f 47/172/5 50/173/5 52/174/5 51/175/5
f 53/176/6 21/65/6 24/68/6 54/177/6
f 26/70/1 55/178/1 56/179/1 27/71/1
f 53/180/2 55/181/2 26/74/2 21/73/2
f 24/80/3 27/79/3 56/182/3 54/183/3
f 53/184/5 54/185/5 56/186/5 55/187/5
f 57/188/6 55/189/6 56/190/6 58/191/6
f 59/192/1 60/193/1 61/194/1 62/195/1
f 57/196/2 60/197/2 59/198/2 55/199/2
f 56/200/3 62/201/3 61/202/3 58/203/3
f 55/204/4 59/205/4 62/206/4 56/207/4
f 57/208/5 58/209/5 61/210/5 60/211/5
f 63/212/6 60/213/6 61/214/6 64/215/6
f 63/216/2 41/124/2 42/127/2 60/217/2
f 61/218/3 43/128/3 44/131/3 64/219/3
f 60/220/4 42/132/4 43/135/4 61/221/4
f 63/222/5 64/223/5 44/137/5 41/136/5
