# Blender v2.79 (sub 0) OBJ File: ''
# www.blender.org
mtllib st_signpost_corr.mtl
o signstone
v 0.000000 1.139069 0.139787
v -0.139787 1.139069 0.139787
v -0.279575 1.139069 0.139787
v -0.279575 0.999277 0.279575
v -0.139787 0.999277 0.279575
v 0.000000 0.999277 0.279575
v 0.139787 0.999277 0.279575
v 0.279575 0.999277 0.279575
v 0.279575 1.139069 0.139787
v 0.139787 1.139069 0.139787
v 0.139787 -0.119027 0.139787
v 0.000000 -0.119027 0.139787
v -0.139787 -0.119027 0.139787
v -0.139787 0.020761 0.279575
v 0.000000 0.020761 0.279575
v 0.139787 0.020761 0.279575
v -0.419367 0.300335 0.279575
v -0.419367 0.440128 0.279575
v -0.419367 0.579915 0.279575
v -0.419367 0.719702 0.279575
v -0.419367 0.859490 0.279575
v -0.559154 0.859490 0.139787
v -0.559154 0.719702 0.139787
v -0.559154 0.579915 0.139787
v -0.559154 0.440128 0.139787
v -0.559154 0.300335 0.139787
v 0.419367 0.440128 0.279575
v 0.419367 0.579915 0.279575
v 0.419367 0.719702 0.279575
v 0.419367 0.859490 0.279575
v 0.559154 0.859490 0.139787
v 0.559154 0.719702 0.139787
v 0.559154 0.579915 0.139787
v 0.559154 0.440128 0.139787
v 0.559154 0.300335 0.139787
v 0.419367 0.300335 0.279575
v -0.279575 0.160548 0.279575
v -0.279575 0.300335 0.279575
v -0.419367 0.160548 0.139787
v 0.279575 0.160548 0.279575
v 0.279575 0.300335 0.279575
v 0.419367 0.160548 0.139787
v -0.279575 0.020761 0.139787
v -0.279575 -0.119027 0.139787
v -0.279575 0.160548 0.139787
v -0.139787 0.160548 0.279575
v 0.279575 -0.119027 0.139787
v 0.279575 0.020761 0.139787
v 0.279575 0.160548 0.139787
v 0.139787 0.160548 0.279575
v 0.000000 -0.398606 -0.139787
v -0.139787 -0.398606 -0.139787
v -0.139787 -0.258819 -0.139787
v 0.000000 -0.258819 -0.139787
v -0.139787 -0.398606 -0.000000
v 0.000000 -0.398606 -0.000000
v -0.139787 -0.258819 -0.000000
v -0.139787 -0.119027 -0.139787
v 0.000000 -0.119027 -0.139787
v -0.139787 -0.119027 -0.000000
v -0.279575 -0.119027 -0.139787
v -0.279575 0.020761 -0.139787
v -0.139787 0.020761 -0.139787
v -0.279575 -0.119027 -0.000000
v -0.279575 0.020761 -0.000000
v 0.000000 0.020761 -0.139787
v -0.279575 0.160548 -0.139787
v -0.139787 0.160548 -0.139787
v -0.279575 0.160548 -0.000000
v 0.000000 0.020761 -0.279575
v -0.139787 0.020761 -0.279575
v -0.139787 0.160548 -0.279575
v 0.000000 0.160548 -0.279575
v -0.419367 0.160548 -0.139787
v -0.419367 0.300335 -0.139787
v -0.279575 0.300335 -0.139787
v -0.419367 0.160548 -0.000000
v -0.419367 0.300335 -0.000000
v -0.279575 0.160548 -0.279575
v -0.279575 0.300335 -0.279575
v -0.139787 0.300335 -0.279575
v 0.000000 0.300335 -0.279575
v -0.559154 0.300335 -0.139787
v -0.559154 0.440128 -0.139787
v -0.419367 0.440128 -0.139787
v -0.559154 0.300335 -0.000000
v -0.559154 0.440128 -0.000000
v -0.419367 0.300335 -0.279575
v -0.419367 0.440128 -0.279575
v -0.279575 0.440128 -0.279575
v -0.139787 0.440128 -0.279575
v 0.000000 0.440128 -0.279575
v -0.559154 0.579915 -0.139787
v -0.419367 0.579915 -0.139787
v -0.559154 0.579915 -0.000000
v -0.419367 0.579915 -0.279575
v -0.279575 0.579915 -0.279575
v -0.139787 0.579915 -0.279575
v 0.000000 0.579915 -0.279575
v -0.559154 0.719702 -0.139787
v -0.419367 0.719702 -0.139787
v -0.559154 0.719702 0.000000
v -0.419367 0.719702 -0.279575
v -0.279575 0.719702 -0.279575
v -0.139787 0.719702 -0.279575
v 0.000000 0.719702 -0.279575
v -0.559154 0.859490 -0.139787
v -0.419367 0.859490 -0.139787
v -0.419367 0.859490 0.000000
v -0.559154 0.859490 0.000000
v -0.419367 0.859490 -0.279575
v -0.279575 0.859490 -0.279575
v -0.279575 0.859490 -0.139787
v -0.139787 0.859490 -0.279575
v -0.139787 0.859490 -0.139787
v 0.000000 0.859490 -0.279575
v 0.000000 0.859490 -0.139787
v -0.419367 0.999277 -0.139787
v -0.279575 0.999277 -0.139787
v -0.279575 0.999277 0.000000
v -0.419367 0.999277 0.000000
v -0.139787 0.999277 -0.139787
v 0.000000 0.999277 -0.139787
v -0.279575 1.139069 -0.139787
v -0.139787 1.139069 -0.139787
v -0.139787 1.139069 0.000000
v -0.279575 1.139069 0.000000
v 0.000000 1.139069 -0.139787
v -0.139787 1.278857 -0.139787
v 0.000000 1.278857 -0.139787
v -0.139787 1.278857 0.000000
v -0.139787 1.418644 -0.139787
v 0.000000 1.418644 -0.139787
v -0.139787 1.418644 0.000000
v -0.139787 1.558431 -0.139787
v 0.000000 1.558431 -0.139787
v 0.000000 1.558431 0.000000
v -0.139787 1.558431 0.000000
v -0.139787 -0.398606 0.139787
v 0.000000 -0.398606 0.139787
v 0.000000 -0.258819 0.139787
v -0.139787 -0.258819 0.139787
v -0.139787 0.020761 0.139787
v 0.000000 0.020761 0.139787
v 0.000000 0.160548 0.279575
v -0.139787 0.160548 0.139787
v -0.139787 0.300335 0.279575
v -0.279575 0.300335 0.139787
v 0.000000 0.300335 0.279575
v -0.419367 0.300335 0.139787
v -0.279575 0.440128 0.279575
v -0.419367 0.440128 0.139787
v -0.139787 0.440128 0.279575
v 0.000000 0.440128 0.279575
v -0.279575 0.579915 0.279575
v -0.419367 0.579915 0.139787
v -0.139787 0.579915 0.279575
v 0.000000 0.579915 0.279575
v -0.279575 0.719702 0.279575
v -0.419367 0.719702 0.139787
v -0.139787 0.719702 0.279575
v 0.000000 0.719702 0.279575
v -0.279575 0.859490 0.279575
v -0.279575 0.859490 0.139787
v -0.419367 0.859490 0.139787
v -0.139787 0.859490 0.279575
v 0.000000 0.859490 0.279575
v -0.139787 0.999277 0.139787
v -0.279575 0.999277 0.139787
v 0.000000 0.999277 0.139787
v -0.419367 0.999277 0.139787
v 0.000000 1.278857 0.139787
v -0.139787 1.278857 0.139787
v 0.000000 1.418644 0.139787
v -0.139787 1.418644 0.139787
v 0.000000 1.558431 0.139787
v -0.139787 1.558431 0.139787
v 0.139787 -0.398606 -0.139787
v 0.139787 -0.258819 -0.139787
v 0.139787 -0.398606 -0.000000
v 0.139787 -0.258819 -0.000000
v 0.139787 -0.119027 -0.139787
v 0.139787 -0.119027 -0.000000
v 0.139787 0.020761 -0.139787
v 0.279575 -0.119027 -0.139787
v 0.279575 0.020761 -0.139787
v 0.279575 -0.119027 -0.000000
v 0.279575 0.020761 -0.000000
v 0.139787 0.160548 -0.139787
v 0.279575 0.160548 -0.139787
v 0.279575 0.160548 -0.000000
v 0.139787 0.020761 -0.279575
v 0.139787 0.160548 -0.279575
v 0.419367 0.160548 -0.139787
v 0.279575 0.300335 -0.139787
v 0.419367 0.300335 -0.139787
v 0.419367 0.160548 -0.000000
v 0.419367 0.300335 -0.000000
v 0.139787 0.300335 -0.279575
v 0.279575 0.160548 -0.279575
v 0.279575 0.300335 -0.279575
v 0.559154 0.300335 -0.139787
v 0.419367 0.440128 -0.139787
v 0.559154 0.440128 -0.139787
v 0.559154 0.300335 -0.000000
v 0.559154 0.440128 -0.000000
v 0.139787 0.440128 -0.279575
v 0.279575 0.440128 -0.279575
v 0.419367 0.300335 -0.279575
v 0.419367 0.440128 -0.279575
v 0.419367 0.579915 -0.139787
v 0.559154 0.579915 -0.139787
v 0.559154 0.579915 -0.000000
v 0.139787 0.579915 -0.279575
v 0.279575 0.579915 -0.279575
v 0.419367 0.579915 -0.279575
v 0.419367 0.719702 -0.139787
v 0.559154 0.719702 -0.139787
v 0.559154 0.719702 0.000000
v 0.139787 0.719702 -0.279575
v 0.279575 0.719702 -0.279575
v 0.419367 0.719702 -0.279575
v 0.419367 0.859490 -0.139787
v 0.559154 0.859490 -0.139787
v 0.559154 0.859490 0.000000
v 0.419367 0.859490 0.000000
v 0.139787 0.859490 -0.279575
v 0.139787 0.859490 -0.139787
v 0.279575 0.859490 -0.279575
v 0.279575 0.859490 -0.139787
v 0.419367 0.859490 -0.279575
v 0.139787 0.999277 -0.139787
v 0.279575 0.999277 -0.139787
v 0.419367 0.999277 -0.139787
v 0.419367 0.999277 0.000000
v 0.279575 0.999277 0.000000
v 0.139787 1.139069 -0.139787
v 0.279575 1.139069 -0.139787
v 0.279575 1.139069 0.000000
v 0.139787 1.139069 0.000000
v 0.139787 1.278857 -0.139787
v 0.139787 1.278857 0.000000
v 0.139787 1.418644 -0.139787
v 0.139787 1.418644 0.000000
v 0.139787 1.558431 -0.139787
v 0.139787 1.558431 0.000000
v 0.139787 -0.398606 0.139787
v 0.139787 -0.258819 0.139787
v 0.139787 0.020761 0.139787
v 0.139787 0.160548 0.139787
v 0.139787 0.300335 0.279575
v 0.279575 0.300335 0.139787
v 0.419367 0.300335 0.139787
v 0.139787 0.440128 0.279575
v 0.279575 0.440128 0.279575
v 0.419367 0.440128 0.139787
v 0.139787 0.579915 0.279575
v 0.279575 0.579915 0.279575
v 0.419367 0.579915 0.139787
v 0.139787 0.719702 0.279575
v 0.279575 0.719702 0.279575
v 0.419367 0.719702 0.139787
v 0.139787 0.859490 0.279575
v 0.279575 0.859490 0.279575
v 0.419367 0.859490 0.139787
v 0.279575 0.859490 0.139787
v 0.139787 0.999277 0.139787
v 0.279575 0.999277 0.139787
v 0.419367 0.999277 0.139787
v 0.139787 1.278857 0.139787
v 0.139787 1.418644 0.139787
v 0.139787 1.558431 0.139787
vn 0.0000 0.7071 0.7071
vn 0.0000 0.7071 -0.7071
vn -0.7071 -0.0000 0.7071
vn -0.7071 0.0000 -0.7071
vn -0.4082 -0.4083 0.8165
vn -0.4082 0.4083 -0.8165
vn -1.0000 0.0000 0.0000
vn 0.0000 -0.7071 0.7071
vn -0.3015 -0.3015 0.9045
vn 1.0000 -0.0000 0.0000
vn -0.3015 0.3015 -0.9045
vn 0.0000 0.0000 -1.0000
vn 0.0000 -1.0000 0.0000
vn 0.0000 1.0000 0.0000
vn 0.0000 0.0000 1.0000
vn -0.8517 0.3705 0.3705
vn -0.6759 0.6759 0.2940
vn -0.3705 0.8518 0.3705
vn 0.3705 0.8518 0.3705
vn 0.6759 0.6759 0.2940
vn 0.8517 0.3705 0.3705
usemtl None
s off
f 1//1 2//1 3//1 4//1 5//1 6//1 7//1 8//1 9//1 10//1
f 11//2 12//2 13//2 14//2 15//2 16//2
f 17//3 18//3 19//3 20//3 21//3 22//3 23//3 24//3 25//3 26//3
f 27//4 28//4 29//4 30//4 31//4 32//4 33//4 34//4 35//4 36//4
f 37//5 38//5 17//5 39//5
f 40//6 41//6 36//6 42//6
f 43//7 44//7 37//7 45//7
f 13//8 14//8 44//8
f 14//9 46//9 37//9 44//9
f 40//10 47//10 48//10 49//10
f 11//2 16//2 47//2
f 16//11 50//11 40//11 47//11
s 1
f 51//12 52//12 53//12 54//12
f 55//13 52//13 51//13 56//13
f 55//7 57//7 53//7 52//7
f 54//12 53//12 58//12 59//12
f 57//7 60//7 58//7 53//7
f 58//12 61//12 62//12 63//12
f 64//13 61//13 58//13 60//13
f 64//7 65//7 62//7 61//7
f 59//12 58//12 63//12 66//12
f 63//12 62//12 67//12 68//12
f 65//7 69//7 67//7 62//7
f 70//12 71//12 72//12 73//12
f 63//13 71//13 70//13 66//13
f 63//7 68//7 72//7 71//7
f 67//12 74//12 75//12 76//12
f 77//13 74//13 67//13 69//13
f 77//7 78//7 75//7 74//7
f 72//12 79//12 80//12 81//12
f 67//13 79//13 72//13 68//13
f 67//7 76//7 80//7 79//7
f 73//12 72//12 81//12 82//12
f 75//12 83//12 84//12 85//12
f 86//13 83//13 75//13 78//13
f 86//7 87//7 84//7 83//7
f 80//12 88//12 89//12 90//12
f 75//13 88//13 80//13 76//13
f 75//7 85//7 89//7 88//7
f 81//12 80//12 90//12 91//12
f 82//12 81//12 91//12 92//12
f 85//12 84//12 93//12 94//12
f 87//7 95//7 93//7 84//7
f 90//12 89//12 96//12 97//12
f 85//7 94//7 96//7 89//7
f 91//12 90//12 97//12 98//12
f 92//12 91//12 98//12 99//12
f 94//12 93//12 100//12 101//12
f 95//7 102//7 100//7 93//7
f 97//12 96//12 103//12 104//12
f 94//7 101//7 103//7 96//7
f 98//12 97//12 104//12 105//12
f 99//12 98//12 105//12 106//12
f 101//12 100//12 107//12 108//12
f 109//14 108//14 107//14 110//14
f 102//7 110//7 107//7 100//7
f 104//12 103//12 111//12 112//12
f 113//14 112//14 111//14 108//14
f 101//7 108//7 111//7 103//7
f 105//12 104//12 112//12 114//12
f 115//14 114//14 112//14 113//14
f 106//12 105//12 114//12 116//12
f 117//14 116//14 114//14 115//14
f 113//12 108//12 118//12 119//12
f 120//14 119//14 118//14 121//14
f 109//7 121//7 118//7 108//7
f 115//12 113//12 119//12 122//12
f 117//12 115//12 122//12 123//12
f 122//12 119//12 124//12 125//12
f 126//14 125//14 124//14 127//14
f 120//7 127//7 124//7 119//7
f 123//12 122//12 125//12 128//12
f 128//12 125//12 129//12 130//12
f 126//7 131//7 129//7 125//7
f 130//12 129//12 132//12 133//12
f 131//7 134//7 132//7 129//7
f 133//12 132//12 135//12 136//12
f 137//14 136//14 135//14 138//14
f 134//7 138//7 135//7 132//7
f 139//15 140//15 141//15 142//15
f 139//13 55//13 56//13 140//13
f 139//7 142//7 57//7 55//7
f 142//15 141//15 12//15 13//15
f 142//7 13//7 60//7 57//7
f 44//15 13//15 143//15 43//15
f 44//13 64//13 60//13 13//13
f 44//7 43//7 65//7 64//7
f 13//15 12//15 144//15 143//15
f 14//15 15//15 145//15 46//15
f 14//13 143//13 144//13 15//13
f 14//7 46//7 146//7 143//7
f 43//15 143//15 146//15 45//15
f 43//7 45//7 69//7 65//7
f 37//15 46//15 147//15 38//15
f 37//13 45//13 146//13 46//13
f 37//7 38//7 148//7 45//7
f 46//15 145//15 149//15 147//15
f 39//15 45//15 148//15 150//15
f 39//13 77//13 69//13 45//13
f 39//7 150//7 78//7 77//7
f 17//15 38//15 151//15 18//15
f 17//13 150//13 148//13 38//13
f 17//7 18//7 152//7 150//7
f 38//15 147//15 153//15 151//15
f 147//15 149//15 154//15 153//15
f 26//15 150//15 152//15 25//15
f 26//13 86//13 78//13 150//13
f 26//7 25//7 87//7 86//7
f 18//15 151//15 155//15 19//15
f 18//7 19//7 156//7 152//7
f 151//15 153//15 157//15 155//15
f 153//15 154//15 158//15 157//15
f 25//15 152//15 156//15 24//15
f 25//7 24//7 95//7 87//7
f 19//15 155//15 159//15 20//15
f 19//7 20//7 160//7 156//7
f 155//15 157//15 161//15 159//15
f 157//15 158//15 162//15 161//15
f 24//15 156//15 160//15 23//15
f 24//7 23//7 102//7 95//7
f 20//15 159//15 163//15 21//15
f 163//14 164//14 165//14 21//14
f 20//7 21//7 165//7 160//7
f 159//15 161//15 166//15 163//15
f 161//15 162//15 167//15 166//15
f 23//15 160//15 165//15 22//15
f 165//14 109//14 110//14 22//14
f 23//7 22//7 110//7 102//7
f 163//15 166//15 5//15 4//15
f 5//14 168//14 169//14 4//14
f 163//7 4//7 169//7 164//7
f 166//15 167//15 6//15 5//15
f 6//14 170//14 168//14 5//14
f 165//15 164//15 169//15 171//15
f 169//14 120//14 121//14 171//14
f 165//7 171//7 121//7 109//7
f 169//15 168//15 2//15 3//15
f 2//14 126//14 127//14 3//14
f 169//7 3//7 127//7 120//7
f 168//15 170//15 1//15 2//15
f 2//15 1//15 172//15 173//15
f 2//7 173//7 131//7 126//7
f 173//15 172//15 174//15 175//15
f 173//7 175//7 134//7 131//7
f 175//15 174//15 176//15 177//15
f 176//14 137//14 138//14 177//14
f 175//7 177//7 138//7 134//7
f 178//12 51//12 54//12 179//12
f 56//13 51//13 178//13 180//13
f 180//10 178//10 179//10 181//10
f 179//12 54//12 59//12 182//12
f 181//10 179//10 182//10 183//10
f 182//12 59//12 66//12 184//12
f 185//12 182//12 184//12 186//12
f 183//13 182//13 185//13 187//13
f 187//10 185//10 186//10 188//10
f 186//12 184//12 189//12 190//12
f 188//10 186//10 190//10 191//10
f 192//12 70//12 73//12 193//12
f 66//13 70//13 192//13 184//13
f 184//10 192//10 193//10 189//10
f 194//12 190//12 195//12 196//12
f 191//13 190//13 194//13 197//13
f 197//10 194//10 196//10 198//10
f 193//12 73//12 82//12 199//12
f 200//12 193//12 199//12 201//12
f 189//13 193//13 200//13 190//13
f 190//10 200//10 201//10 195//10
f 202//12 196//12 203//12 204//12
f 198//13 196//13 202//13 205//13
f 205//10 202//10 204//10 206//10
f 199//12 82//12 92//12 207//12
f 201//12 199//12 207//12 208//12
f 209//12 201//12 208//12 210//12
f 195//13 201//13 209//13 196//13
f 196//10 209//10 210//10 203//10
f 204//12 203//12 211//12 212//12
f 206//10 204//10 212//10 213//10
f 207//12 92//12 99//12 214//12
f 208//12 207//12 214//12 215//12
f 210//12 208//12 215//12 216//12
f 203//10 210//10 216//10 211//10
f 212//12 211//12 217//12 218//12
f 213//10 212//10 218//10 219//10
f 214//12 99//12 106//12 220//12
f 215//12 214//12 220//12 221//12
f 216//12 215//12 221//12 222//12
f 211//10 216//10 222//10 217//10
f 218//12 217//12 223//12 224//12
f 225//14 224//14 223//14 226//14
f 219//10 218//10 224//10 225//10
f 220//12 106//12 116//12 227//12
f 228//14 227//14 116//14 117//14
f 221//12 220//12 227//12 229//12
f 230//14 229//14 227//14 228//14
f 222//12 221//12 229//12 231//12
f 223//14 231//14 229//14 230//14
f 217//10 222//10 231//10 223//10
f 228//12 117//12 123//12 232//12
f 230//12 228//12 232//12 233//12
f 223//12 230//12 233//12 234//12
f 235//14 234//14 233//14 236//14
f 226//10 223//10 234//10 235//10
f 232//12 123//12 128//12 237//12
f 233//12 232//12 237//12 238//12
f 239//14 238//14 237//14 240//14
f 236//10 233//10 238//10 239//10
f 237//12 128//12 130//12 241//12
f 240//10 237//10 241//10 242//10
f 241//12 130//12 133//12 243//12
f 242//10 241//10 243//10 244//10
f 243//12 133//12 136//12 245//12
f 246//14 245//14 136//14 137//14
f 244//10 243//10 245//10 246//10
f 140//15 247//15 248//15 141//15
f 140//13 56//13 180//13 247//13
f 247//10 180//10 181//10 248//10
f 141//15 248//15 11//15 12//15
f 248//10 181//10 183//10 11//10
f 12//15 11//15 249//15 144//15
f 11//15 47//15 48//15 249//15
f 11//13 183//13 187//13 47//13
f 47//10 187//10 188//10 48//10
f 15//15 16//15 50//15 145//15
f 15//13 144//13 249//13 16//13
f 16//10 249//10 250//10 50//10
f 249//15 48//15 49//15 250//15
f 48//10 188//10 191//10 49//10
f 145//15 50//15 251//15 149//15
f 50//15 40//15 41//15 251//15
f 50//13 250//13 49//13 40//13
f 40//10 49//10 252//10 41//10
f 49//15 42//15 253//15 252//15
f 49//13 191//13 197//13 42//13
f 42//10 197//10 198//10 253//10
f 149//15 251//15 254//15 154//15
f 251//15 41//15 255//15 254//15
f 41//15 36//15 27//15 255//15
f 41//13 252//13 253//13 36//13
f 36//10 253//10 256//10 27//10
f 253//15 35//15 34//15 256//15
f 253//13 198//13 205//13 35//13
f 35//10 205//10 206//10 34//10
f 154//15 254//15 257//15 158//15
f 254//15 255//15 258//15 257//15
f 255//15 27//15 28//15 258//15
f 27//10 256//10 259//10 28//10
f 256//15 34//15 33//15 259//15
f 34//10 206//10 213//10 33//10
f 158//15 257//15 260//15 162//15
f 257//15 258//15 261//15 260//15
f 258//15 28//15 29//15 261//15
f 28//10 259//10 262//10 29//10
f 259//15 33//15 32//15 262//15
f 33//10 213//10 219//10 32//10
f 162//15 260//15 263//15 167//15
f 260//15 261//15 264//15 263//15
f 261//15 29//15 30//15 264//15
f 30//14 265//14 266//14 264//14
f 29//10 262//10 265//10 30//10
f 262//15 32//15 31//15 265//15
f 31//14 225//14 226//14 265//14
f 32//10 219//10 225//10 31//10
f 167//15 263//15 7//15 6//15
f 7//14 267//14 170//14 6//14
f 263//15 264//15 8//15 7//15
f 8//14 268//14 267//14 7//14
f 264//10 266//10 268//10 8//10
f 266//15 265//15 269//15 268//15
f 269//14 235//14 236//14 268//14
f 265//10 226//10 235//10 269//10
f 170//15 267//15 10//15 1//15
f 267//15 268//15 9//15 10//15
f 9//14 239//14 240//14 10//14
f 268//10 236//10 239//10 9//10
f 1//15 10//15 270//15 172//15
f 10//10 240//10 242//10 270//10
f 172//15 270//15 271//15 174//15
f 270//10 242//10 244//10 271//10
f 174//15 271//15 272//15 176//15
f 272//14 246//14 137//14 176//14
f 271//10 244//10 246//10 272//10
f 169//7 4//7 3//7
f 8//10 268//10 9//10
f 143//7 13//7 14//7
f 11//10 249//10 16//10
f 150//13 17//13 26//13
f 165//13 21//13 22//13
f 265//14 30//14 31//14
f 253//14 36//14 35//14
f 165//7 21//16 171//17
f 4//18 169//14 171//17
f 163//12 21//12 4//12
f 171//17 21//16 4//18
f 268//14 8//19 269//20
f 30//21 265//10 269//20
f 30//12 264//12 8//12
f 269//20 8//19 30//21
f 150//7 39//7 17//7
f 45//13 37//13 39//13
f 253//7 42//7 36//7
f 49//14 40//14 42//14
